<svg width="68" height="34" viewBox="0 0 68 34" fill="none" xmlns="http://www.w3.org/2000/svg">
<g id="logo1">
<g id="Group 2">
<circle id="Ellipse 1" cx="8.5" cy="25.5" r="8.5" fill="url(#paint0_linear_96_599)"/>
<g id="Mask group">
<mask id="mask0_96_599" style="mask-type:alpha" maskUnits="userSpaceOnUse" x="0" y="17" width="17" height="17">
<circle id="Ellipse 5" cx="8.5" cy="25.5" r="8.5" fill="url(#paint1_linear_96_599)"/>
</mask>
<g mask="url(#mask0_96_599)">
<circle id="Ellipse 4" cx="15.5" cy="21.5" r="8.5" fill="url(#paint2_linear_96_599)"/>
</g>
</g>
</g>
<g id="Group 4">
<circle id="Ellipse 1_2" cx="59.5" cy="8.5" r="8.5" fill="url(#paint3_linear_96_599)"/>
<g id="Mask group_2">
<mask id="mask1_96_599" style="mask-type:alpha" maskUnits="userSpaceOnUse" x="51" y="0" width="17" height="17">
<circle id="Ellipse 5_2" cx="59.5" cy="8.5" r="8.5" fill="url(#paint4_linear_96_599)"/>
</mask>
<g mask="url(#mask1_96_599)">
<circle id="Ellipse 4_2" cx="66.5" cy="4.5" r="8.5" fill="url(#paint5_linear_96_599)"/>
</g>
</g>
</g>
<g id="Group 3">
<path id="Subtract" fill-rule="evenodd" clip-rule="evenodd" d="M34 8.5C34 8.61957 33.9975 8.73857 33.9926 8.85695L34 8.86364V13C34 15.2091 35.7909 17 38 17H41H42.95L42.9637 17.0124C47.4425 17.2532 51 20.9611 51 25.5C51 30.1944 47.1944 34 42.5 34C37.8056 34 34 30.1944 34 25.5L34.0001 25.4525L34 25.4524V24V21C34 18.7909 32.2091 17 30 17H25.9318L25.922 16.9897C25.7822 16.9965 25.6415 17 25.5 17C20.8056 17 17 13.1944 17 8.5C17 3.80558 20.8056 0 25.5 0C30.1944 0 34 3.80558 34 8.5Z" fill="url(#paint6_linear_96_599)"/>
<g id="Mask group_3">
<mask id="mask2_96_599" style="mask-type:alpha" maskUnits="userSpaceOnUse" x="17" y="0" width="34" height="34">
<path id="Subtract_2" fill-rule="evenodd" clip-rule="evenodd" d="M34 8.5C34 8.61957 33.9975 8.73857 33.9926 8.85695L34 8.86364V13C34 15.2091 35.7909 17 38 17H41H42.95L42.9637 17.0124C47.4425 17.2532 51 20.9611 51 25.5C51 30.1944 47.1944 34 42.5 34C37.8056 34 34 30.1944 34 25.5L34.0001 25.4525L34 25.4524V24V21C34 18.7909 32.2091 17 30 17H25.9318L25.922 16.9897C25.7822 16.9965 25.6415 17 25.5 17C20.8056 17 17 13.1944 17 8.5C17 3.80558 20.8056 0 25.5 0C30.1944 0 34 3.80558 34 8.5Z" fill="url(#paint7_linear_96_599)"/>
</mask>
<g mask="url(#mask2_96_599)">
<circle id="Ellipse 4_3" cx="30.5" cy="4.5" r="8.5" fill="url(#paint8_linear_96_599)"/>
<circle id="Ellipse 5_3" cx="32.5" cy="25.5" r="8.5" fill="url(#paint9_linear_96_599)"/>
</g>
</g>
</g>
</g>
<defs>
<linearGradient id="paint0_linear_96_599" x1="8" y1="18.5" x2="14" y2="37" gradientUnits="userSpaceOnUse">
<stop stop-color="#01FFFD"/>
<stop offset="1" stop-color="#151DC8"/>
</linearGradient>
<linearGradient id="paint1_linear_96_599" x1="5" y1="18.5" x2="12" y2="34" gradientUnits="userSpaceOnUse">
<stop stop-color="#01FFFD"/>
<stop offset="1" stop-color="#1533C9"/>
</linearGradient>
<linearGradient id="paint2_linear_96_599" x1="16" y1="18.5" x2="16" y2="31.5" gradientUnits="userSpaceOnUse">
<stop stop-color="#01FFFD"/>
<stop offset="1" stop-color="#1433C9"/>
</linearGradient>
<linearGradient id="paint3_linear_96_599" x1="59" y1="1.5" x2="60" y2="18" gradientUnits="userSpaceOnUse">
<stop stop-color="#E12CFF"/>
<stop offset="1" stop-color="#7500D1"/>
</linearGradient>
<linearGradient id="paint4_linear_96_599" x1="56" y1="1.5" x2="63" y2="17" gradientUnits="userSpaceOnUse">
<stop stop-color="#01FFFD"/>
<stop offset="1" stop-color="#1533C9"/>
</linearGradient>
<linearGradient id="paint5_linear_96_599" x1="65.5" y1="-0.5" x2="67" y2="13" gradientUnits="userSpaceOnUse">
<stop stop-color="#E12CFF"/>
<stop offset="1" stop-color="#7A03C9"/>
</linearGradient>
<linearGradient id="paint6_linear_96_599" x1="33" y1="3" x2="48" y2="57.5" gradientUnits="userSpaceOnUse">
<stop stop-color="#01FFFD"/>
<stop offset="1" stop-color="#151DC8"/>
</linearGradient>
<linearGradient id="paint7_linear_96_599" x1="33" y1="3" x2="45" y2="40" gradientUnits="userSpaceOnUse">
<stop stop-color="#01FFFD"/>
<stop offset="1" stop-color="#151DC8"/>
</linearGradient>
<linearGradient id="paint8_linear_96_599" x1="28" y1="1" x2="31.5" y2="13.5" gradientUnits="userSpaceOnUse">
<stop stop-color="#25FFFE"/>
<stop offset="1" stop-color="#0092E4"/>
</linearGradient>
<linearGradient id="paint9_linear_96_599" x1="26.5" y1="16.5" x2="36" y2="36.5" gradientUnits="userSpaceOnUse">
<stop stop-color="#21F7FC"/>
<stop offset="1" stop-color="#114ED4"/>
</linearGradient>
</defs>
</svg>
